<svg width="22" height="24" viewBox="0 0 22 23" xmlns="http://www.w3.org/2000/svg">
    <g id="svgGroup" stroke-linecap="round" fill-rule="evenodd" font-size="9pt" stroke="##FFF" stroke-width="0.25mm" fill="#FFF" style="stroke:#FFF;stroke-width:0.25mm;fill:#FFF">
        <path d="M 8.807 9.826 L 8.71 9.826 A 4.326 4.326 0 0 1 8.293 10.477 A 2.76 2.76 0 0 1 7.765 10.995 A 2.349 2.349 0 0 1 7.106 11.338 A 2.306 2.306 0 0 1 6.644 11.44 A 3.007 3.007 0 0 1 6.284 11.461 A 2.965 2.965 0 0 1 5.243 11.276 Q 4.746 11.092 4.373 10.714 A 2.518 2.518 0 0 1 3.964 10.163 A 3.242 3.242 0 0 1 3.775 9.756 A 3.173 3.173 0 0 1 3.607 9.123 Q 3.551 8.78 3.551 8.385 Q 3.551 7.901 3.661 7.339 A 5.782 5.782 0 0 1 4 6.227 A 6.223 6.223 0 0 1 4.003 6.218 A 5.778 5.778 0 0 1 4.601 5.138 A 4.28 4.28 0 0 1 5.476 4.214 A 4.125 4.125 0 0 1 6.406 3.669 A 4.785 4.785 0 0 1 6.649 3.573 A 3.963 3.963 0 0 1 7.542 3.365 A 5.073 5.073 0 0 1 8.139 3.331 A 3.587 3.587 0 0 1 8.583 3.357 Q 8.888 3.395 9.136 3.489 Q 9.517 3.634 9.777 3.829 A 1.814 1.814 0 0 1 9.826 3.867 L 10.547 3.489 L 10.978 3.489 L 10.064 8.077 Q 10.037 8.288 10.002 8.499 A 5.216 5.216 0 0 0 9.978 8.684 A 6.777 6.777 0 0 0 9.958 8.886 A 5.164 5.164 0 0 0 9.943 9.138 A 4.201 4.201 0 0 0 9.94 9.281 Q 9.94 9.575 10.02 9.797 A 1.097 1.097 0 0 0 10.033 9.831 A 1.31 1.31 0 0 0 10.143 10.05 A 1.033 1.033 0 0 0 10.274 10.217 A 0.898 0.898 0 0 0 10.622 10.441 A 1.237 1.237 0 0 0 11.039 10.512 Q 11.394 10.512 11.763 10.257 A 2.119 2.119 0 0 0 11.848 10.195 Q 12.205 9.922 12.503 9.427 A 4.316 4.316 0 0 0 12.595 9.268 A 4.888 4.888 0 0 0 12.864 8.681 Q 12.983 8.372 13.081 8.014 A 8.739 8.739 0 0 0 13.144 7.77 Q 13.353 6.91 13.359 5.81 A 11.993 11.993 0 0 0 13.359 5.739 A 6.258 6.258 0 0 0 13.276 4.696 A 4.687 4.687 0 0 0 12.982 3.661 Q 12.604 2.76 11.931 2.149 A 4.356 4.356 0 0 0 10.609 1.331 A 5.121 5.121 0 0 0 10.323 1.226 A 6.077 6.077 0 0 0 8.98 0.948 A 7.488 7.488 0 0 0 8.262 0.914 A 6.167 6.167 0 0 0 6.535 1.16 Q 5.687 1.406 4.931 1.885 Q 4.175 2.364 3.529 3.054 A 7.182 7.182 0 0 0 2.446 4.572 A 7.958 7.958 0 0 0 2.417 4.628 Q 1.951 5.511 1.688 6.583 A 9.189 9.189 0 0 0 1.445 8.206 A 10.89 10.89 0 0 0 1.424 8.886 A 8.765 8.765 0 0 0 1.495 10.034 Q 1.599 10.819 1.855 11.448 A 5.243 5.243 0 0 0 2.398 12.464 A 4.247 4.247 0 0 0 3.019 13.179 A 4.505 4.505 0 0 0 4.724 14.159 A 6.717 6.717 0 0 0 6.582 14.464 A 7.607 7.607 0 0 0 6.785 14.467 A 7.657 7.657 0 0 0 7.806 14.401 A 6.661 6.661 0 0 0 8.183 14.339 A 8.276 8.276 0 0 0 9.124 14.101 A 7.239 7.239 0 0 0 9.418 14.001 A 8.043 8.043 0 0 0 10.2 13.668 A 6.967 6.967 0 0 0 10.481 13.522 A 9.069 9.069 0 0 0 10.998 13.216 A 7.218 7.218 0 0 0 11.356 12.973 L 11.777 13.623 Q 11.329 13.957 10.775 14.278 A 8.376 8.376 0 0 1 9.815 14.753 A 9.473 9.473 0 0 1 9.576 14.849 A 8.444 8.444 0 0 1 8.552 15.171 A 9.704 9.704 0 0 1 8.187 15.253 A 7.491 7.491 0 0 1 7.021 15.398 A 8.703 8.703 0 0 1 6.609 15.407 A 9.173 9.173 0 0 1 4.971 15.266 A 7.598 7.598 0 0 1 3.946 15.007 A 5.778 5.778 0 0 1 2.332 14.189 A 5.336 5.336 0 0 1 1.859 13.799 Q 0.984 12.99 0.492 11.777 A 6.447 6.447 0 0 1 0.11 10.381 Q 0.007 9.745 0 9.026 A 10.734 10.734 0 0 1 0 8.93 A 10.569 10.569 0 0 1 0.197 6.864 A 9.617 9.617 0 0 1 0.277 6.5 Q 0.554 5.344 1.077 4.351 A 8.412 8.412 0 0 1 2.342 2.553 A 7.758 7.758 0 0 1 4.017 1.182 A 8.085 8.085 0 0 1 6.043 0.308 A 8.389 8.389 0 0 1 7.986 0.008 A 9.597 9.597 0 0 1 8.367 0 A 8.644 8.644 0 0 1 9.682 0.095 A 6.271 6.271 0 0 1 11.022 0.448 A 5.847 5.847 0 0 1 12.216 1.077 A 4.915 4.915 0 0 1 12.929 1.674 A 5.014 5.014 0 0 1 14.076 3.511 A 6.532 6.532 0 0 1 14.449 5.414 A 7.574 7.574 0 0 1 14.458 5.792 Q 14.458 7.093 14.142 8.143 Q 13.825 9.193 13.315 9.932 A 4.681 4.681 0 0 1 12.812 10.549 A 3.492 3.492 0 0 1 12.177 11.066 A 2.771 2.771 0 0 1 11.618 11.339 A 2.087 2.087 0 0 1 10.925 11.461 A 2.446 2.446 0 0 1 10.298 11.384 A 1.861 1.861 0 0 1 9.593 11.03 A 2.291 2.291 0 0 1 9.017 10.323 A 3.098 3.098 0 0 1 8.807 9.826 Z M 8.534 8.262 L 9.22 4.606 Q 9.106 4.351 8.82 4.21 Q 8.534 4.069 8.209 4.069 A 2.133 2.133 0 0 0 7.578 4.16 A 1.91 1.91 0 0 0 7.238 4.302 Q 6.803 4.535 6.473 4.913 A 3.838 3.838 0 0 0 5.983 5.629 A 4.382 4.382 0 0 0 5.906 5.779 A 6.705 6.705 0 0 0 5.515 6.776 Q 5.361 7.286 5.291 7.77 Q 5.225 8.221 5.221 8.588 A 4.362 4.362 0 0 0 5.221 8.64 Q 5.221 9.586 5.601 10.047 A 1.229 1.229 0 0 0 5.603 10.05 A 1.214 1.214 0 0 0 6.48 10.508 A 1.516 1.516 0 0 0 6.592 10.512 A 1.775 1.775 0 0 0 6.99 10.469 A 1.366 1.366 0 0 0 7.383 10.314 A 1.849 1.849 0 0 0 7.945 9.8 A 2.699 2.699 0 0 0 8.249 9.252 A 3.146 3.146 0 0 0 8.315 9.079 Q 8.455 8.675 8.534 8.262 Z" vector-effect="non-scaling-stroke" />
    </g>
</svg>