<svg width="8" height="20" viewBox="0 0 2.268 12.973" xmlns="http://www.w3.org/2000/svg">
    <g id="svgGroup" stroke-linecap="round" fill-rule="evenodd" font-size="9pt" stroke="#FFF" stroke-width="0.25mm" fill="#FFF" style="stroke:#FFF;stroke-width:0.25mm;fill:#FFF">
        <path d="M 0.721 9.229 L 0.088 0 L 2.18 0 L 1.547 9.229 L 0.721 9.229 Z M 0.012 11.506 A 2.324 2.324 0 0 0 0 11.751 A 2.485 2.485 0 0 0 0.002 11.857 Q 0.008 11.989 0.028 12.103 A 1.298 1.298 0 0 0 0.088 12.331 A 1.146 1.146 0 0 0 0.171 12.509 A 0.84 0.84 0 0 0 0.33 12.709 A 0.912 0.912 0 0 0 0.69 12.911 Q 0.896 12.973 1.134 12.973 A 1.682 1.682 0 0 0 1.162 12.972 A 1.507 1.507 0 0 0 1.569 12.911 A 0.912 0.912 0 0 0 1.929 12.709 A 0.865 0.865 0 0 0 2.083 12.52 A 1.186 1.186 0 0 0 2.175 12.331 Q 2.232 12.186 2.254 12.003 A 2.124 2.124 0 0 0 2.268 11.751 A 2.42 2.42 0 0 0 2.264 11.616 Q 2.249 11.353 2.175 11.167 A 1.188 1.188 0 0 0 2.09 10.992 A 0.885 0.885 0 0 0 1.929 10.793 A 0.912 0.912 0 0 0 1.569 10.591 A 1.427 1.427 0 0 0 1.53 10.58 A 1.528 1.528 0 0 0 1.134 10.529 A 1.746 1.746 0 0 0 1.017 10.533 A 1.492 1.492 0 0 0 0.69 10.591 A 0.912 0.912 0 0 0 0.33 10.793 A 0.84 0.84 0 0 0 0.185 10.968 A 1.111 1.111 0 0 0 0.088 11.167 A 1.122 1.122 0 0 0 0.051 11.283 Q 0.025 11.386 0.012 11.506 Z" vector-effect="non-scaling-stroke" />
    </g>
</svg>