<svg width="17" height="20" viewBox="0 0 9.167 12.85" xmlns="http://www.w3.org/2000/svg">
    <g id="svgGroup" stroke-linecap="round" fill-rule="evenodd" font-size="9pt" stroke="#000" stroke-width="0.25mm" fill="#FFF" style="stroke:#FFF;stroke-width:0.25mm;fill:#FFF">
        <path d="M 6.539 8.13 L 8.587 8.13 L 8.587 9.193 L 6.319 9.193 L 5.634 12.85 L 4.553 12.85 L 5.238 9.193 L 2.733 9.193 L 2.057 12.85 L 0.976 12.85 L 1.661 9.193 L 0 9.193 L 0 8.13 L 1.854 8.13 L 2.54 4.605 L 0.58 4.605 L 0.58 3.542 L 2.733 3.542 L 3.384 0 L 4.482 0 L 3.814 3.542 L 6.319 3.542 L 6.987 0 L 8.068 0 L 7.4 3.542 L 9.167 3.542 L 9.167 4.605 L 7.198 4.605 L 6.539 8.13 Z M 3.621 4.605 L 2.953 8.13 L 5.458 8.13 L 6.126 4.605 L 3.621 4.605 Z" vector-effect="non-scaling-stroke" />
    </g>
</svg>